<svg enable-background="new 0 0 512 512" height="512" viewBox="0 0 512 512" width="512" xmlns="http://www.w3.org/2000/svg"><g id="_x31_8_Address_Book"><g><path d="m474.344 161.866c8.336 0 15.131-6.742 15.131-15.131v-52.987c0-8.336-6.796-15.132-15.131-15.132h-29.307v-10.353c0-37.006-30.104-67.109-67.109-67.109h-288.294c-37.006 0-67.109 30.103-67.109 67.109v375.472c0 37.006 30.104 67.11 67.109 67.11h288.294c37.006 0 67.109-30.104 67.109-67.11v-97.159h29.307c8.336 0 15.131-6.796 15.131-15.131v-52.987c0-8.336-6.796-15.132-15.131-15.132h-29.307v-9.079h29.307c8.336 0 15.131-6.796 15.131-15.131v-52.987c0-8.335-6.796-15.131-15.131-15.131h-29.307v-9.132zm-39.926 281.869c0 31.166-25.379 56.491-56.491 56.491h-258.19v-488.453h258.19c31.112 0 56.491 25.325 56.491 56.49z"/><path d="m366.3 303.412c-7.645-33.82-33.13-59.411-65.304-68.012 11.043-7.645 18.264-20.334 18.264-34.723 0-23.254-18.901-42.209-42.156-42.209-23.308 0-42.209 18.954-42.209 42.209 0 14.389 7.221 27.078 18.211 34.67-32.174 8.602-57.659 34.192-65.304 68.065-2.92 12.742 6.902 24.9 20.122 24.9h138.307c13.167 0 22.989-12.159 20.069-24.9zm-89.196-71.198c-17.414 0-31.59-14.123-31.59-31.537s14.176-31.59 31.59-31.59c17.361 0 31.537 14.176 31.537 31.59.001 17.414-14.175 31.537-31.537 31.537z"/></g></g></svg>