<svg id="Layer_1" enable-background="new 0 0 512 512" height="512" viewBox="0 0 512 512" width="512" xmlns="http://www.w3.org/2000/svg"><g><path d="m460.584 25.862h-224.771c-27.784 0-50.362 22.578-50.362 50.362v114.75h-76.288c-21.144 0-38.356 17.159-38.356 38.303v28.847c0 10.89 4.569 20.719 11.9 27.679h-43.404c-21.143 0-38.303 17.213-38.303 38.356v28.793c0 21.144 17.16 38.356 38.303 38.356h21.144c-7.331 6.96-11.9 16.788-11.9 27.679v28.794c0 21.144 17.159 38.356 38.303 38.356h373.734c27.784 0 50.416-22.631 50.416-50.416v-359.496c0-27.784-22.631-50.363-50.416-50.363zm-421.281 354.822c-15.247 0-27.678-12.431-27.678-27.731v-28.793c0-15.301 12.431-27.731 27.678-27.731h146.147v84.256c-80.75-.001-63.431-.001-146.147-.001zm461.072 55.038c0 21.94-17.85 39.791-39.791 39.791h-224.771c-21.941 0-39.737-17.851-39.737-39.791v-359.497c0-21.941 17.797-39.737 39.737-39.737h224.772c21.941 0 39.791 17.797 39.791 39.737v359.497z"/><path d="m442.642 69.848h-188.837c-13.427 0-24.347 10.923-24.347 24.347v65.457c0 13.424 10.921 24.347 24.347 24.347h188.838c13.427 0 24.347-10.923 24.347-24.347v-65.457c-.001-13.424-10.921-24.347-24.348-24.347zm13.722 89.804c0 7.567-6.158 13.722-13.722 13.722h-188.837c-7.564 0-13.722-6.156-13.722-13.722v-65.457c0-7.567 6.158-13.722 13.722-13.722h188.838c7.564 0 13.722 6.156 13.722 13.722v65.457z"/><path d="m335.422 232.837v55.781c0 13.388-10.944 24.331-24.385 24.331h-55.781c-13.44 0-24.384-10.943-24.384-24.331v-55.781c0-13.44 10.944-24.331 24.384-24.331h55.781c13.441 0 24.385 10.891 24.385 24.331z"/><path d="m465.578 232.837v55.781c0 13.388-10.944 24.331-24.385 24.331h-55.781c-13.44 0-24.384-10.943-24.384-24.331v-55.781c0-13.44 10.944-24.331 24.384-24.331h55.781c13.441 0 24.385 10.891 24.385 24.331z"/><path d="m335.422 359.753v55.781c0 13.441-10.944 24.332-24.385 24.332h-55.781c-13.44 0-24.384-10.891-24.384-24.332v-55.781c0-13.388 10.944-24.332 24.384-24.332h55.781c13.441 0 24.385 10.944 24.385 24.332z"/><path d="m465.578 359.753v55.781c0 13.441-10.944 24.332-24.385 24.332h-55.781c-13.44 0-24.384-10.891-24.384-24.332v-55.781c0-13.388 10.944-24.332 24.384-24.332h55.781c13.441 0 24.385 10.944 24.385 24.332z"/></g></svg>