<svg enable-background="new 0 0 512 512" height="512" viewBox="0 0 512 512" width="512" xmlns="http://www.w3.org/2000/svg"><g id="_x32_4_Buy_Now"><g><path d="m424.371 26.485h-336.791c-39.749 0-70.969 32.617-70.969 70.919v317.092c0 39.15 31.819 71.019 71.019 71.019h336.742c39.15 0 71.019-31.869 71.019-71.019v-317.092c-.001-38.352-31.271-70.919-71.02-70.919zm-198.145 28.727c13.715 0 24.837 11.122 24.837 24.837 0 13.665-11.122 24.787-24.837 24.787-13.665 0-24.787-11.122-24.787-24.787 0-13.716 11.122-24.837 24.787-24.837zm-66.381 0c13.715 0 24.837 11.122 24.837 24.837 0 13.665-11.122 24.787-24.837 24.787-13.665 0-24.787-11.122-24.787-24.787 0-13.716 11.122-24.837 24.787-24.837zm-66.381 0c13.715 0 24.837 11.122 24.837 24.837 0 13.665-11.122 24.787-24.837 24.787-13.665 0-24.787-11.122-24.787-24.787.001-13.716 11.122-24.837 24.787-24.837zm391.951 359.284c0 33.664-27.38 61.044-61.044 61.044h-336.742c-33.664 0-61.044-27.38-61.044-61.044v-280.934h458.83z"/><path d="m413.449 177.45h-314.898c-16.358 0-29.674 13.366-29.674 29.774v115.157c0 16.358 13.316 29.724 29.674 29.724h177.647l2.244 25.335c.898 10.473 13.665 15.162 21.196 7.681l12.269-12.319c.948-.947 2.544-.947 3.491 0l42.392 42.442c4.887 4.838 12.718 4.838 17.605 0l24.687-24.687c4.838-4.887 4.838-12.768 0-17.605l-20.847-20.847h34.213c16.358 0 29.674-13.366 29.674-29.724v-115.157c.001-16.408-13.315-29.774-29.673-29.774zm19.7 144.931c0 10.872-8.878 19.749-19.7 19.749h-44.187l-11.571-11.571c-.998-.997-.998-2.544 0-3.491l12.269-12.318c7.58-7.531 2.743-20.299-7.631-21.146 0 0-.299-.05-.598-.05l-.648-.05c-4.14-.399-20.498-1.846-76.056-6.733-7.481-.648-14.014 5.586-13.366 13.416l3.042 34.861.648 7.082h-176.8c-10.872 0-19.7-8.878-19.7-19.749v-115.157c0-10.922 8.827-19.799 19.7-19.799h314.897c10.822 0 19.7 8.878 19.7 19.799v115.157z"/></g></g></svg>