<svg enable-background="new 0 0 512 512" height="512" viewBox="0 0 512 512" width="512" xmlns="http://www.w3.org/2000/svg"><g id="_x35_6_business_box"><g><path d="m489.414 248.001h-111.667c.64-2.08 1.04-4.24 1.04-6.559v-166.622c0-12.479-10.079-22.638-22.558-22.638h-200.458c-12.479 0-22.558 10.159-22.558 22.638v166.622c0 2.32.4 4.479 1.04 6.559h-111.667c-12.399 0-22.558 10.159-22.558 22.558v166.621c0 12.479 10.159 22.638 22.558 22.638h200.458c12.479 0 22.558-10.159 22.558-22.638v-166.621c0-2.32-.4-4.479-1.04-6.559h22.877c-.64 2.08-1.04 4.239-1.04 6.559v166.621c0 12.479 10.079 22.638 22.558 22.638h200.458c12.399 0 22.558-10.159 22.558-22.638v-166.621c-.002-12.399-10.161-22.558-22.559-22.558zm-259.811 189.179c0 3.68-2.96 6.639-6.559 6.639h-200.458c-3.6 0-6.559-2.96-6.559-6.639v-166.621c0-3.6 2.96-6.559 6.559-6.559h64.793v57.514c0 6.239 7.039 10.079 12.318 6.719l23.118-14.798 23.117 14.798c5.28 3.36 12.319-.4 12.319-6.719v-57.514h64.793c3.6 0 6.559 2.96 6.559 6.559zm-73.832-189.179c-3.6 0-6.559-2.96-6.559-6.559v-166.622c0-3.679 2.96-6.639 6.559-6.639h64.793v57.514c0 6.32 7.039 10.159 12.318 6.719l23.118-14.798 23.118 14.798c5.279 3.44 12.318-.32 12.318-6.719v-57.514h64.793c3.6 0 6.559 2.96 6.559 6.639v166.622c0 3.6-2.96 6.559-6.559 6.559zm340.202 189.179c0 3.68-2.96 6.639-6.559 6.639h-200.458c-3.599 0-6.559-2.96-6.559-6.639v-166.621c0-3.6 2.96-6.559 6.559-6.559h64.793v57.514c0 6.239 6.959 10.079 12.318 6.719l23.118-14.798 23.118 14.798c5.279 3.36 12.318-.4 12.318-6.719v-57.514h64.793c3.6 0 6.559 2.96 6.559 6.559z"/></g></g></svg>