<svg enable-background="new 0 0 512 512" height="512" viewBox="0 0 512 512" width="512" xmlns="http://www.w3.org/2000/svg"><g id="_x30_2_Inventory"><g><path d="m488.954 160.998-218.902-150.463c-8.431-5.777-19.673-5.777-28.105 0l-218.901 150.463c-11.294 7.755-14.156 23.16-6.401 34.453 7.755 11.243 23.212 14.105 34.454 6.402l6.141-4.267v297.802h-29.927c-2.862 0-5.205 2.342-5.205 5.205s2.342 5.204 5.205 5.204h457.373c2.862 0 5.205-2.342 5.205-5.204 0-2.863-2.342-5.205-5.205-5.205h-29.978v-297.802l6.193 4.267c11.398 7.807 26.751 4.736 34.454-6.402 7.755-11.241 4.893-26.698-6.401-34.453zm-249.973 334.39h-86.499v-86.5h38.045v10.513c0 2.863 2.342 5.204 5.205 5.204s5.205-2.342 5.205-5.204v-10.513h38.045v86.5zm23.629 0h-13.22v-86.5h13.22zm96.908 0h-86.499v-86.5h38.045v10.513c0 2.863 2.342 5.204 5.205 5.204 2.862 0 5.204-2.342 5.204-5.204v-10.513h38.045zm33.465 0h-23.056v-91.704c0-2.862-2.342-5.204-5.205-5.204h-55.064v-91.651c0-2.915-2.342-5.205-5.204-5.205h-96.908c-2.862 0-5.205 2.29-5.205 5.205v91.651h-55.064c-2.862 0-5.205 2.342-5.205 5.204v91.704h-23.056v-263.868c0-5.517 4.476-10.046 9.993-10.046h253.98c5.517 0 9.993 4.529 9.993 10.046v263.868zm93.786-305.817c-4.32 6.297-13.636 8.067-19.986 3.695-.052-.052-.104-.104-.156-.104-.052-.052-.104-.052-.156-.104-.104-.052-.156-.104-.26-.208-.156-.104-.312-.156-.416-.26l-.312-.208c-.208-.156-.468-.365-.78-.573-8.588-5.88-48.558-33.413-205.735-141.406-1.821-1.249-4.111-1.249-5.933 0-195.535 134.379-207.349 142.55-207.349 142.55-.104.052-.26.156-.469.313-6.558 4.476-15.509 2.811-19.985-3.695-4.528-6.558-2.811-15.509 3.695-19.986l218.954-150.514c4.84-3.331 11.398-3.331 16.238 0l218.954 150.514c6.506 4.476 8.171 13.428 3.696 19.986z"/></g></g></svg>