<svg enable-background="new 0 0 512 512" height="512" viewBox="0 0 512 512" width="512" xmlns="http://www.w3.org/2000/svg"><g id="_x30_4_Market_Place"><g><path d="m457.212 443.173h-1.546v-283.777c10.822-8.728 17.805-22.043 17.805-37.005v-61.344c0-24.537-19.949-44.436-44.437-44.436h-346.068c-24.537 0-44.437 19.899-44.437 44.436v61.344c0 14.064 6.035 27.63 17.805 37.055v283.727h-1.546c-14.264 0-26.133 11.47-26.133 26.133 0 14.363 11.72 26.083 26.133 26.083h402.424c14.413 0 26.133-11.721 26.133-26.083 0-14.414-11.72-26.133-26.133-26.133zm-153.758-416.588h75.059v95.806c0 20.697-16.807 37.504-37.504 37.504-20.647 0-37.554-16.608-37.554-37.504v-95.806zm-169.967 0h75.009v95.806c0 20.697-16.807 37.504-37.455 37.504s-37.554-16.608-37.554-37.504zm-67.178 139.045c5.486 2.494 12.967 4.29 19.7 4.29 17.605 0 34.362-10.174 42.442-26.283 7.531 15.062 23.44 26.283 42.592 26.283 18.203 0 34.662-10.773 42.442-26.283 7.531 15.112 23.44 26.283 42.541 26.283 17.655 0 34.362-10.224 42.442-26.283 7.581 15.162 23.49 26.283 42.542 26.283 17.804 0 34.412-10.274 42.442-26.283 7.78 15.61 24.039 26.283 42.542 26.283 5.985 0 13.516-1.496 19.7-4.29v277.543h-206.825v-186.824c0-15.012-12.219-27.181-27.181-27.181h-81.442c-14.962 0-27.181 12.169-27.181 27.181v186.824h-36.756zm70.819 161.189v23.939c0 2.743-2.194 4.987-4.987 4.987-2.743 0-4.987-2.244-4.987-4.987v-23.939c0-2.743 2.244-4.987 4.987-4.987 2.793 0 4.987 2.244 4.987 4.987zm320.084 158.596h-402.424c-8.927 0-16.159-7.231-16.159-16.109 0-9.127 7.381-16.159 16.159-16.159h402.424c8.927 0 16.159 7.231 16.159 16.159 0 8.878-7.232 16.109-16.159 16.109z"/><path d="m385.794 229.168h-87.028c-14.463 0-26.183 11.721-26.183 26.183v136.951c0 14.463 11.72 26.233 26.183 26.233h87.028c14.413 0 26.183-11.77 26.183-26.233v-136.951c0-14.463-11.77-26.183-26.183-26.183zm16.209 163.134c0 8.977-7.282 16.259-16.209 16.259h-87.028c-8.927 0-16.209-7.282-16.209-16.259v-136.951c0-8.927 7.282-16.209 16.209-16.209h87.028c8.927 0 16.209 7.282 16.209 16.209z"/></g></g></svg>