<svg enable-background="new 0 0 512 512" height="512" viewBox="0 0 512 512" width="512" xmlns="http://www.w3.org/2000/svg"><g id="_x32_6_Billion"><g><path d="m444.699 104.372h-64.05v-26.343c0-34.362-27.989-62.351-62.404-62.351h-124.49c-34.415 0-62.404 27.989-62.404 62.351v26.343h-63.997c-36.54 0-66.281 29.741-66.281 66.281v259.441c0 36.54 29.741 66.228 66.281 66.228h377.345c36.54 0 66.228-29.688 66.228-66.228v-259.441c0-36.54-29.689-66.281-66.228-66.281zm-259.919-26.343c0-4.939 4.036-8.922 8.976-8.922h124.489c4.992 0 8.976 3.983 8.976 8.922v26.343h-142.441zm315.525 352.065c0 30.644-24.962 55.606-55.606 55.606h-377.345c-30.698 0-55.659-24.961-55.659-55.606v-259.441c0-30.697 24.961-55.659 55.659-55.659h377.345c30.644 0 55.606 24.962 55.606 55.659z"/><path d="m256 169.909c-71.911 0-130.385 58.527-130.385 130.438 0 71.964 58.474 130.437 130.385 130.437s130.438-58.473 130.438-130.437c0-71.911-58.527-130.438-130.438-130.438zm-6.957 125.127h13.915c20.713 0 37.548 16.835 37.548 37.548s-16.836 37.548-37.548 37.548h-1.646v7.33c0 2.921-2.39 5.311-5.311 5.311s-5.311-2.39-5.311-5.311v-7.33h-33.831c-2.974 0-5.311-2.39-5.311-5.311s2.337-5.311 5.311-5.311h46.1c14.871 0 26.926-12.056 26.926-26.926 0-14.817-12.056-26.926-26.926-26.926h-13.915c-20.66 0-37.496-16.836-37.496-37.549 0-20.659 16.836-37.496 37.496-37.496h1.646v-7.329c0-2.974 2.39-5.311 5.311-5.311s5.311 2.337 5.311 5.311v7.329h33.884c2.921 0 5.311 2.337 5.311 5.311 0 2.921-2.39 5.311-5.311 5.311h-46.152c-14.818 0-26.874 12.056-26.874 26.874-.001 14.871 12.055 26.927 26.873 26.927z"/></g></g></svg>