<svg enable-background="new 0 0 512 512" height="512" viewBox="0 0 512 512" width="512" xmlns="http://www.w3.org/2000/svg"><g id="_x30_5_Info_Architecture"><g><path d="m467.806 262.245h-39.499v-20.036c0-17.277-14.051-31.328-31.277-31.328h-135.826v-32.161h72.545c18.162 0 32.89-14.779 32.89-32.942v-106.684c0-18.162-14.728-32.89-32.89-32.89h-155.498c-18.162 0-32.942 14.728-32.942 32.89v106.684c0 18.162 14.78 32.942 32.942 32.942h72.545v32.161h-135.827c-17.226 0-31.276 14.051-31.276 31.328v20.036h-39.499c-11.657 0-21.129 9.472-21.129 21.129v61.304c0 11.657 9.471 21.128 21.129 21.128h89.354c11.657 0 21.129-9.471 21.129-21.128v-61.304c0-11.657-9.471-21.129-21.129-21.129h-39.447v-20.036c0-11.501 9.367-20.92 20.868-20.92h135.827v40.955h-39.499c-11.605 0-21.076 9.472-21.076 21.129v61.304c0 11.657 9.471 21.128 21.076 21.128h39.499v36.429h-39.499c-11.605 0-21.076 9.471-21.076 21.128v61.304c0 11.657 9.471 21.129 21.076 21.129h89.406c11.605 0 21.077-9.472 21.077-21.129v-61.304c0-11.657-9.471-21.128-21.077-21.128h-39.499v-36.429h39.499c11.605 0 21.077-9.471 21.077-21.128v-61.304c0-11.657-9.471-21.129-21.077-21.129h-39.499v-40.955h135.826c11.501 0 20.868 9.419 20.868 20.92v20.036h-39.447c-11.657 0-21.129 9.472-21.129 21.129v61.304c0 11.657 9.471 21.128 21.129 21.128h89.354c11.657 0 21.129-9.471 21.129-21.128v-61.304c.001-11.658-9.471-21.129-21.128-21.129zm-167.103 10.408c5.881 0 10.669 4.84 10.669 10.721v61.304c0 5.932-4.788 10.72-10.669 10.72h-89.406c-5.881 0-10.668-4.788-10.668-10.72v-61.304c0-5.881 4.788-10.721 10.668-10.721zm-122.452-104.342c-12.438 0-22.534-10.096-22.534-22.533v-106.684c0-12.386 10.096-22.482 22.534-22.482h155.498c12.438 0 22.482 10.096 22.482 22.482v106.684c0 12.437-10.044 22.533-22.482 22.533z"/></g></g></svg>