<svg enable-background="new 0 0 512 512" height="512" viewBox="0 0 512 512" width="512" xmlns="http://www.w3.org/2000/svg"><g id="_x31_8_Project_Management"><g><path d="m278.199 179.869c1.978 2.54 5.762 2.748 8.004.408l43.044-45.004c2.022-2.115 1.944-5.465-.165-7.487-2.12-2.024-5.47-1.949-7.487.165l-38.805 40.573-11.784-15.139c-1.799-2.311-5.124-2.722-7.43-.926-2.306 1.794-2.72 5.121-.926 7.43z"/><path d="m217.048 126.318h-138.617c-2.927 0-5.295 2.371-5.295 5.295s2.368 5.295 5.295 5.295h138.616c2.926 0 5.295-2.371 5.295-5.295s-2.368-5.295-5.294-5.295z"/><path d="m217.048 171.323h-99.589c-2.927 0-5.295 2.371-5.295 5.295s2.368 5.295 5.295 5.295h99.589c2.926 0 5.295-2.371 5.295-5.295s-2.369-5.295-5.295-5.295z"/><path d="m286.203 308.176 43.044-45.004c2.022-2.115 1.944-5.465-.165-7.487-2.12-2.024-5.47-1.947-7.487.165l-38.805 40.573-11.784-15.139c-1.799-2.311-5.124-2.725-7.43-.926-2.306 1.794-2.72 5.121-.926 7.43l15.548 19.979c1.979 2.54 5.763 2.749 8.005.409z"/><path d="m217.048 254.216h-138.617c-2.927 0-5.295 2.371-5.295 5.295s2.368 5.295 5.295 5.295h138.616c2.926 0 5.295-2.371 5.295-5.295s-2.368-5.295-5.294-5.295z"/><path d="m217.048 299.22h-99.589c-2.927 0-5.295 2.371-5.295 5.295s2.368 5.295 5.295 5.295h99.589c2.926 0 5.295-2.371 5.295-5.295s-2.369-5.295-5.295-5.295z"/><path d="m217.048 382.114h-138.617c-2.927 0-5.295 2.371-5.295 5.295s2.368 5.295 5.295 5.295h138.616c2.926 0 5.295-2.371 5.295-5.295s-2.368-5.295-5.294-5.295z"/><path d="m217.048 427.118h-99.589c-2.927 0-5.295 2.371-5.295 5.295s2.368 5.295 5.295 5.295h99.589c2.926 0 5.295-2.371 5.295-5.295s-2.369-5.295-5.295-5.295z"/><path d="m440.411 329.753h-20.755c14.507-10.324 23.985-27.214 23.985-46.328 0-29.597-22.714-54.005-51.622-56.652v-147.719c0-24.884-20.225-45.109-45.057-45.109h-55.805v-3.124c0-15.99-13.025-28.961-28.961-28.961h-120.559c-15.937 0-28.908 12.972-28.908 28.961v3.124h-55.753c-24.885 0-45.11 20.225-45.11 45.109v386.03c0 24.831 20.225 45.057 45.11 45.057h416.367c14.772 0 26.791-12.019 26.791-26.791v-93.926c0-32.933-26.791-59.671-59.723-59.671zm-107.374 0c-33.038 0-59.723 26.844-59.723 59.67v93.926c0 5.295 1.959 11.542 5.507 16.202h-221.845c-19.06 0-34.521-15.461-34.521-34.468v-386.029c0-19.06 15.46-34.52 34.521-34.52h55.752v6.142c0 15.884 12.866 28.961 28.961 28.961h120.558c16.095 0 28.908-13.289 28.908-28.961v-6.142h55.805c19.007 0 34.468 15.46 34.468 34.52v147.667c-29.173 2.753-51.622 27.532-51.622 56.705 0 18.001 8.948 35.633 23.878 46.328h-20.647zm53.687 0c-12.76 0-24.355-5.189-32.721-13.607-8.418-8.365-13.607-19.961-13.607-32.72 0-25.573 20.808-46.328 46.328-46.328 25.573 0 46.328 20.754 46.328 46.328 0 25.52-20.755 46.327-46.328 46.327z"/></g></g></svg>