<svg enable-background="new 0 0 512 512" height="512" viewBox="0 0 512 512" width="512" xmlns="http://www.w3.org/2000/svg"><g id="_x32_2_Receipt"><g><path d="m418.899.107c-.053 0-.106-.053-.16-.053h-277.435c-20.636 0-37.432 16.797-37.432 37.379v412.501c-5.866 3.999-14.024 4.853-23.089-2.293-4.266-3.305-9.598-7.465-19.569-7.465-2.933 0-5.332 2.346-5.332 5.332v29.06c0 20.582 16.796 37.379 37.485 37.379h261.119c20.636 0 37.432-16.797 37.432-37.379v-134.479h53.536c5.865 0 10.664-4.746 10.664-10.664v-291.993c0-20.156-16.157-37.165-37.219-37.325zm-37.645 37.325v437.135c0 14.717-11.997 26.715-26.768 26.715-14.77 0-26.768-11.997-26.768-26.715v-29.06c0-2.986-2.4-5.332-5.332-5.332-9.971 0-15.303 4.159-19.569 7.465-9.065 7.092-16.85 7.306-26.181.053-12.957-10.184-26.181-10.237-39.192-.053-9.011 7.092-16.797 7.306-26.075.053-12.957-10.184-26.181-10.184-39.245 0-9.225 7.252-17.01 7.039-26.021-.053-11.198-8.744-22.822-9.065-31.567-4.959v-405.249c0-14.717 11.997-26.714 26.768-26.714h251.254c-6.985 6.772-11.304 16.263-11.304 26.714z"/><path d="m336.579 58.515h-114.431c-2.945 0-5.332 2.388-5.332 5.332s2.388 5.332 5.332 5.332h114.432c2.945 0 5.332-2.388 5.332-5.332s-2.388-5.332-5.333-5.332z"/><path d="m175.905 58.515h-16.71c-2.945 0-5.332 2.388-5.332 5.332s2.388 5.332 5.332 5.332h16.71c2.945 0 5.332-2.388 5.332-5.332s-2.388-5.332-5.332-5.332z"/><path d="m336.579 104.683h-114.431c-2.945 0-5.332 2.388-5.332 5.332 0 2.945 2.388 5.332 5.332 5.332h114.432c2.945 0 5.332-2.388 5.332-5.332 0-2.945-2.388-5.332-5.333-5.332z"/><path d="m175.905 104.683h-16.71c-2.945 0-5.332 2.388-5.332 5.332 0 2.945 2.388 5.332 5.332 5.332h16.71c2.945 0 5.332-2.388 5.332-5.332 0-2.945-2.388-5.332-5.332-5.332z"/><path d="m336.579 150.853h-114.431c-2.945 0-5.332 2.388-5.332 5.332s2.388 5.332 5.332 5.332h114.432c2.945 0 5.332-2.388 5.332-5.332s-2.388-5.332-5.333-5.332z"/><path d="m175.905 150.853h-16.71c-2.945 0-5.332 2.388-5.332 5.332s2.388 5.332 5.332 5.332h16.71c2.945 0 5.332-2.388 5.332-5.332s-2.388-5.332-5.332-5.332z"/><path d="m336.579 197.023h-114.431c-2.945 0-5.332 2.388-5.332 5.332s2.388 5.332 5.332 5.332h114.432c2.945 0 5.332-2.388 5.332-5.332s-2.388-5.332-5.333-5.332z"/><path d="m175.905 197.023h-16.71c-2.945 0-5.332 2.388-5.332 5.332s2.388 5.332 5.332 5.332h16.71c2.945 0 5.332-2.388 5.332-5.332s-2.388-5.332-5.332-5.332z"/><path d="m336.579 243.19h-114.431c-2.945 0-5.332 2.388-5.332 5.332 0 2.945 2.388 5.332 5.332 5.332h114.432c2.945 0 5.332-2.388 5.332-5.332s-2.388-5.332-5.333-5.332z"/><path d="m175.905 243.19h-16.71c-2.945 0-5.332 2.388-5.332 5.332 0 2.945 2.388 5.332 5.332 5.332h16.71c2.945 0 5.332-2.388 5.332-5.332s-2.388-5.332-5.332-5.332z"/><path d="m336.579 289.36h-114.431c-2.945 0-5.332 2.388-5.332 5.332s2.388 5.332 5.332 5.332h114.432c2.945 0 5.332-2.388 5.332-5.332s-2.388-5.332-5.333-5.332z"/><path d="m175.905 289.36h-16.71c-2.945 0-5.332 2.388-5.332 5.332s2.388 5.332 5.332 5.332h16.71c2.945 0 5.332-2.388 5.332-5.332s-2.388-5.332-5.332-5.332z"/><path d="m336.579 335.53h-114.431c-2.945 0-5.332 2.388-5.332 5.332s2.388 5.332 5.332 5.332h114.432c2.945 0 5.332-2.388 5.332-5.332s-2.388-5.332-5.333-5.332z"/><path d="m175.905 335.53h-16.71c-2.945 0-5.332 2.388-5.332 5.332s2.388 5.332 5.332 5.332h16.71c2.945 0 5.332-2.388 5.332-5.332s-2.388-5.332-5.332-5.332z"/><path d="m336.579 381.698h-114.431c-2.945 0-5.332 2.388-5.332 5.332s2.388 5.332 5.332 5.332h114.432c2.945 0 5.332-2.388 5.332-5.332s-2.388-5.332-5.333-5.332z"/><path d="m175.905 381.698h-16.71c-2.945 0-5.332 2.388-5.332 5.332s2.388 5.332 5.332 5.332h16.71c2.945 0 5.332-2.388 5.332-5.332s-2.388-5.332-5.332-5.332z"/></g></g></svg>