<svg id="Layer_1" enable-background="new 0 0 512 512" height="512" viewBox="0 0 512 512" width="512" xmlns="http://www.w3.org/2000/svg"><g id="_x32_5__Strategy"><g><path d="m462.314 13.757h-412.628c-25.46 0-46.186 20.726-46.186 46.186v281.38c0 25.514 20.726 46.186 46.186 46.186h89.27l-51.5 103.104c-1.736 3.525.842 7.628 4.734 7.628h45.397c1.946 0 3.788-1.105 4.682-2.893l53.814-107.839h119.833l53.761 107.839c.894 1.788 2.683 2.893 4.682 2.893h45.45c3.893 0 6.47-4.103 4.734-7.628l-51.5-103.104h89.27c25.46 0 46.186-20.673 46.186-46.186v-281.379c.002-25.46-20.725-46.187-46.185-46.187zm35.666 327.567c0 19.674-15.992 35.665-35.666 35.665-297.688 0-263.232 0-412.629 0-19.674 0-35.665-15.992-35.665-35.665v-281.38c0-19.674 15.992-35.666 35.665-35.666h412.629c19.674 0 35.666 15.992 35.666 35.666z"/><path d="m373.149 116.915c-2.314 1.84-5.576 1.421-7.364-.843l-17.36-21.83c-2.42 95.213-70.437 178.644-164.178 199.107-.105 5.734-1.63 11.363-4.524 16.518-9.521 16.886-30.826 22.567-47.396 13.151-16.675-9.469-22.62-30.669-13.151-47.449 9.363-16.675 30.563-22.672 47.396-13.151 7.944 4.472 13.677 11.731 16.255 20.463 89.006-19.832 153.394-99.475 155.131-190.217l-19.622 22.093c-1.946 2.21-5.26 2.368-7.417.474-2.21-1.946-2.368-5.26-.474-7.47l28.67-32.248c.894-1 2.315-1.736 3.893-1.736 1.683 0 3.315.894 4.156 1.946l26.829 33.824c1.839 2.265 1.419 5.579-.844 7.368z"/><path d="m134.01 163.05c2.055 2.055 5.384 2.055 7.439 0l25.788-25.788 25.788 25.788c2.055 2.055 5.384 2.055 7.439 0s2.055-5.384 0-7.439l-25.788-25.788 25.788-25.788c2.055-2.055 2.055-5.384 0-7.439s-5.384-2.055-7.439 0l-25.788 25.788-25.788-25.788c-2.055-2.055-5.384-2.055-7.439 0s-2.055 5.384 0 7.439l25.788 25.788-25.788 25.788c-2.055 2.056-2.055 5.384 0 7.439z"/><path d="m395.808 240.272c-2.055-2.055-5.384-2.055-7.438 0l-25.791 25.789-25.791-25.789c-2.055-2.055-5.384-2.055-7.439 0s-2.055 5.384 0 7.439l25.79 25.789-25.79 25.789c-2.055 2.055-2.055 5.384 0 7.439s5.384 2.055 7.439 0l25.791-25.789 25.791 25.789c2.055 2.055 5.384 2.055 7.438 0 2.055-2.055 2.055-5.384 0-7.439l-25.79-25.789 25.79-25.789c2.055-2.056 2.055-5.384 0-7.439z"/></g></g></svg>