<svg enable-background="new 0 0 512 512" height="512" viewBox="0 0 512 512" width="512" xmlns="http://www.w3.org/2000/svg"><g id="_x30_3_User_Acceptane_Test"><g><path d="m455.341 57.585h-202.412c-11.86-22.026-35.156-37.062-61.841-37.062-26.738 0-50.034 15.036-61.894 37.062h-72.589c-30.179 0-54.746 24.566-54.746 54.746v280.402c0 30.18 24.567 54.746 54.746 54.746h151.849v33.409h-42.092c-2.912 0-5.295 2.382-5.295 5.295s2.383 5.295 5.295 5.295h179.222c2.912 0 5.295-2.382 5.295-5.295s-2.383-5.295-5.295-5.295h-42.092v-33.409h151.849c30.232 0 54.799-24.566 54.799-54.746v-280.402c.001-30.18-24.566-54.746-54.799-54.746zm-405.513 166.462v139.83h-37.38v-251.546c0-24.355 19.802-44.157 44.157-44.157h67.983c-2.489 7.359-3.706 16.254-3.706 22.555 0 25.202 13.342 47.227 33.303 59.617h-30.656c-40.609 0-73.701 33.039-73.701 73.701zm271.878 139.83h-49.346v-102.239c0-2.912-2.33-5.295-5.295-5.295-2.912 0-5.295 2.383-5.295 5.295v102.238h-141.418v-102.238c0-2.912-2.383-5.295-5.295-5.295s-5.295 2.383-5.295 5.295v102.238h-49.345v-139.83c0-34.786 28.326-63.111 63.112-63.111h135.065c34.786 0 63.112 28.325 63.112 63.111zm177.846 0h-167.257v-139.83c0-40.662-33.038-73.7-73.701-73.7h-30.656c20.755-12.866 33.356-35.21 33.356-59.564v-.053c0-.053 0-.053 0-.106-.053-7.783-1.641-16.202-3.759-22.449h197.806c24.355 0 44.21 19.802 44.21 44.157v251.545z"/><path d="m294.326 129.194h149.34c2.927 0 5.295-2.371 5.295-5.295s-2.368-5.295-5.295-5.295h-149.34c-2.927 0-5.295 2.371-5.295 5.295s2.368 5.295 5.295 5.295z"/><path d="m443.665 175.183h-92.102c-2.927 0-5.295 2.371-5.295 5.295s2.368 5.295 5.295 5.295h92.102c2.927 0 5.295-2.371 5.295-5.295s-2.368-5.295-5.295-5.295z"/><path d="m443.665 231.761h-64.471c-2.927 0-5.295 2.371-5.295 5.295s2.368 5.295 5.295 5.295h64.471c2.927 0 5.295-2.371 5.295-5.295s-2.368-5.295-5.295-5.295z"/><path d="m443.665 288.34h-86.839c-2.927 0-5.295 2.371-5.295 5.295s2.368 5.295 5.295 5.295h86.839c2.927 0 5.295-2.371 5.295-5.295s-2.368-5.295-5.295-5.295z"/></g></g></svg>